/* XPM */
static char *bd1bf8dcf611471dadd23982629412feUExaTYBF8Bp0gNGe[] = {
/* columns rows colors chars-per-pixel */
"32 32 27 1 ",
"  c #6A7F97",
". c #596A7F",
"X c #37414E",
"o c #37424E",
"O c #596B7F",
"+ c #262D36",
"@ c #667A91",
"# c #5D7085",
"$ c #4C5B6D",
"% c #333C48",
"& c #445160",
"* c #2A323C",
"= c #677C93",
"- c #62758C",
"; c #607288",
": c #516174",
"> c #343E4B",
", c #536276",
"< c #4B596B",
"1 c #424E5E",
"2 c #2F3843",
"3 c #414C5C",
"4 c #3A4452",
"5 c #2D353F",
"6 c #353E4B",
"7 c #2B333D",
"8 c #282F38",
/* pixels */
"             .XoO            .X+",
"           @#$%oO          @#$%+",
"           #&%*oO          #&%*+",
"   =-;;;;;;:>++oO  =-;;;;;;:>+++",
"   -,<<<<<<12++oO  -,<<<<<<12+++",
"   ;<33333345++oO  ;<33333345+++",
"   ;<33333345++oO  ;<33333345+++",
"   ;<33333345++oO  ;<33333345+++",
"   ;<33333345++oO  ;<33333345+++",
"   ;<33333345++oO  ;<33333345+++",
"   ;<33333345++oO  ;<33333345+++",
" @#:144444467++oO@#:144444467+++",
" #&>255555578++oO#&>255555578+++",
".$%++++++++++++%$$%+++++++++++++",
"X%*++++++++++++*%%*+++++++++++++",
"ooooooooooooo%**%oooooooooooo%*+",
"OOOOOOOOOOOOO$%%$OOOOOOOOOOOO$%+",
"           @#$%oO          @#$%+",
"           #&%*oO          #&%*+",
"   =-;;;;;;:>++oO  =-;;;;;;:>+++",
"   -,<<<<<<12++oO  -,<<<<<<12+++",
"   ;<33333345++oO  ;<33333345+++",
"   ;<33333345++oO  ;<33333345+++",
"   ;<33333345++oO  ;<33333345+++",
"   ;<33333345++oO  ;<33333345+++",
"   ;<33333345++oO  ;<33333345+++",
"   ;<33333345++oO  ;<33333345+++",
" @#:144444467++oO@#:144444467+++",
" #&>255555578++oO#&>255555578+++",
".$%++++++++++++%$$%+++++++++++++",
"X%*++++++++++++*%%*+++++++++++++",
"++++++++++++++++++++++++++++++++"
};
