/* XPM */
static char *b3d7d19a3b1c419e9d311bff2c9d235bNlmaB8N6my4WdnNW[] = {
/* columns rows colors chars-per-pixel */
"32 32 112 2 ",
"   c #D3EEFF",
".  c #BBD3EE",
"X  c #8696AB",
"o  c #687584",
"O  c #CDE8FF",
"+  c #C0DBF6",
"@  c #A7BED7",
"#  c #808EA2",
"$  c #9CB0C5",
"%  c #6F7E8E",
"&  c #CFEBFF",
"*  c #C7E1FF",
"=  c #C5DEFA",
"-  c #B0C7E0",
";  c #8292A7",
":  c #B2C7E3",
">  c #A7BBD4",
",  c #98ABC2",
"<  c #79889A",
"1  c #96A7C0",
"2  c #8C9CB0",
"3  c #758494",
"4  c black",
"5  c #040404",
"6  c gray8",
"7  c #151515",
"8  c gray1",
"9  c #131313",
"0  c #090909",
"q  c #727272",
"w  c #D2D2D2",
"e  c #D5D5D5",
"r  c #A9A9A9",
"t  c #0B0B0B",
"y  c #1B1B1B",
"u  c #848384",
"i  c gray35",
"p  c #5D5D5C",
"a  c #F5F6F5",
"s  c white",
"d  c #D7D7D7",
"f  c #252525",
"g  c #202020",
"h  c #B2B2B2",
"j  c #161616",
"k  c #C0C0C0",
"l  c gray42",
"z  c gray2",
"x  c gray44",
"c  c gray96",
"v  c #C2C3C2",
"b  c gray9",
"n  c #9A9A99",
"m  c gray5",
"M  c gray75",
"N  c #6C6C6C",
"B  c #1D1D1D",
"V  c gray4",
"C  c gray88",
"Z  c gray97",
"A  c gray28",
"S  c #020202",
"D  c #616160",
"F  c #FEFEFE",
"G  c #DADAD9",
"H  c gray98",
"J  c #010101",
"K  c #5A5959",
"L  c #F3F3F3",
"P  c #CDCDCD",
"I  c gray13",
"U  c #191919",
"Y  c #C1C1C1",
"T  c #F8F8F9",
"R  c #4E4D4D",
"E  c #E7E7E7",
"W  c gray34",
"Q  c gray22",
"!  c gray21",
"~  c #343434",
"^  c #CACACA",
"/  c #F9F9F9",
"(  c #6D6D6D",
")  c gray3",
"_  c #989897",
"`  c gray25",
"'  c #ECECEB",
"]  c gray18",
"[  c #494A49",
"{  c #535353",
"}  c #959595",
"|  c #2F2F2E",
" . c gray26",
".. c #F4F4F4",
"X. c #3E3E3E",
"o. c #6A6A6A",
"O. c #717171",
"+. c #E9E9E9",
"@. c gray12",
"#. c #E4E4E4",
"$. c gray86",
"%. c gray40",
"&. c #DADADA",
"*. c #232323",
"=. c #1E1E1E",
"-. c #101010",
";. c #B6B6B6",
":. c #353535",
">. c #0B0D0F",
",. c #8492A7",
"<. c #718090",
"1. c #6C7988",
/* pixels */
"                                                          . X o ",
"                                                      O + @ # o ",
"                                                      + $ # % o ",
"      & * = = = = = = = = = = = = = = = = = = = = = = - ; o o o ",
"      * : > > > > > > > > > > > > > > > > > > > > > > , < o o o ",
"      = > 1 1 1 1 1 1 1 1 1 1 1 1 1 1 1 1 1 1 1 1 1 1 2 3 o o o ",
"      = > 1 1 1 1 1 1 1 1 1 1 1 1 1 1 1 1 1 1 1 1 1 1 2 3 o o o ",
"      = > 1 1 1 1 1 1 1 1 1 1 1 1 1 1 1 1 1 1 1 1 1 1 2 3 o o o ",
"      = > 4 4 4 4 4 4 4 4 4 4 4 4 4 4 4 4 4 4 4 4 4 4 2 3 o o o ",
"      = > 4 4 4 4 4 4 4 4 4 4 4 4 4 4 4 4 4 4 4 4 4 4 2 3 o o o ",
"      = > 4 4 4 4 4 4 4 5 6 7 7 5 8 7 7 6 9 7 7 0 4 4 2 3 o o o ",
"      = > 4 4 4 4 4 4 4 q w e r t y e e u r e e i 4 4 2 3 o o o ",
"      = > 4 4 4 4 4 4 p a s d f 4 g s h j k s s l 4 4 2 3 o o o ",
"      = > 4 4 4 4 z x c s v b 4 4 g n m t M s s l 4 4 2 3 o o o ",
"      = > 4 4 4 4 N c s k B 4 4 4 0 V 4 f C s Z A 4 4 2 3 o o o ",
"      = > 4 4 S D F s w 7 4 4 4 4 4 4 y G s H i J 4 4 2 3 o o o ",
"      = > 4 4 K L s P I 4 4 4 4 4 4 U Y s T N J 4 4 4 2 3 o o o ",
"      = > 4 R F s E W Q ! ~ ~ ~ m t ^ s / ( J J ) 4 4 2 3 o o o ",
"      = > 4 _ s s s s s s s s s ` g s s ' ] 4 [ { 4 4 2 3 o o o ",
"      = > 4 } s s s s s s s s s ` g s s ' |  ...l 4 4 2 3 o o o ",
"      = > 4 X.o.o.o.o.o.O.+.s s ` @.c c #.q $.c %.4 4 2 3 o o o ",
"      = > 4 4 4 4 4 4 4 t &.s s ` z f f *.=.f f -.4 4 2 3 o o o ",
"      = > 4 4 4 4 4 4 4 t &.s s ` 4 4 4 4 4 4 4 4 4 4 2 3 o o o ",
"      = > 4 4 4 4 4 4 4 0 ;.e e :.4 4 4 4 4 4 4 4 4 4 2 3 o o o ",
"      = > >.>.>.>.>.>.>.>.>.>.>.>.>.>.>.>.>.>.>.>.>.>.2 3 o o o ",
"      = > 1 1 1 1 1 1 1 1 1 1 1 1 1 1 1 1 1 1 1 1 1 1 2 3 o o o ",
"      = > 1 1 1 1 1 1 1 1 1 1 1 1 1 1 1 1 1 1 1 1 1 1 2 3 o o o ",
"  O + - , 2 2 2 2 2 2 2 2 2 2 2 2 2 2 2 2 2 2 2 2 2 2 ,.<.o o o ",
"  + $ ; < 3 3 3 3 3 3 3 3 3 3 3 3 3 3 3 3 3 3 3 3 3 3 <.1.o o o ",
". @ # o o o o o o o o o o o o o o o o o o o o o o o o o o o o o ",
"X # % o o o o o o o o o o o o o o o o o o o o o o o o o o o o o ",
"o o o o o o o o o o o o o o o o o o o o o o o o o o o o o o o o "
};
