/* XPM */
static char *_cc551edaf6f4c03a6eb9d86065613e5XFWHfEThS4c9xcLo[] = {
/* columns rows colors chars-per-pixel */
"32 32 136 2 ",
"   c #6A7F97",
".  c #596A7F",
"X  c #37414E",
"o  c #262D36",
"O  c #667A91",
"+  c #5D7085",
"@  c #4C5B6D",
"#  c #333C48",
"$  c #445160",
"%  c #2A323C",
"&  c #677C93",
"*  c #62758C",
"=  c #607288",
"-  c #516174",
";  c #343E4B",
":  c #536276",
">  c #59B861",
",  c #2F3843",
"<  c #4B596B",
"1  c #62BC6A",
"2  c #96D29B",
"3  c #5CB964",
"4  c #2D353F",
"5  c #62BC69",
"6  c #D1EBD4",
"7  c #CEEAD0",
"8  c #64BD6B",
"9  c #74C47B",
"0  c #B2DEB6",
"q  c #68BF70",
"w  c #6CC074",
"e  c #6BC072",
"r  c #6CC073",
"t  c #73C379",
"y  c #6EC175",
"u  c #73C37A",
"i  c #67BE6F",
"p  c #77C57E",
"a  c #5DBA65",
"s  c #6FC176",
"d  c #F3FAF4",
"f  c #E3F3E4",
"g  c #87CC8D",
"h  c #83CA89",
"j  c #8FCF95",
"k  c #95D29A",
"l  c #66BE6E",
"z  c #ACDCB0",
"x  c #A9DBAE",
"c  c #8DCE92",
"v  c #84CB8A",
"b  c #A5D8A9",
"n  c #65BD6C",
"m  c #78C57E",
"M  c #69BF70",
"N  c #78C57F",
"B  c #91D096",
"V  c #8ACD90",
"C  c #80C987",
"Z  c #8ECF94",
"A  c #7BC781",
"S  c #93D198",
"D  c #7BC681",
"F  c #6DC174",
"G  c #5AB862",
"H  c #C1E4C4",
"J  c #B0DDB4",
"K  c #68BE6F",
"L  c #61BB69",
"P  c #A6D9AB",
"I  c #A7DAAC",
"U  c #BFE4C2",
"Y  c #B6E0B9",
"T  c #92D198",
"R  c #D6EDD8",
"E  c #90D096",
"W  c #ADDCB1",
"Q  c #C2E5C5",
"!  c #5BB963",
"~  c #7DC883",
"^  c #A2D7A6",
"/  c #9DD5A2",
"(  c #BBE2BE",
")  c #85CB8B",
"_  c #D4EDD6",
"`  c #6ABF71",
"'  c #5CBA64",
"]  c #63BC6A",
"[  c #DAEFDB",
"{  c #63BC6B",
"}  c #5AB962",
"|  c #DBF0DC",
" . c #EAF6EB",
".. c #DDF1DF",
"X. c #77C57D",
"o. c #AEDCB2",
"O. c #AADBAE",
"+. c #6FC276",
"@. c #90D095",
"#. c #D4ECD6",
"$. c #5DBA64",
"%. c #97D29C",
"&. c #C6E7C9",
"*. c #D2ECD4",
"=. c #7DC783",
"-. c #D9EFDB",
";. c #D7EED9",
":. c #68BF6F",
">. c #5EBA65",
",. c #5EBA66",
"<. c #5FBB67",
"1. c #DFF2E1",
"2. c #A4D8A8",
"3. c #86CB8B",
"4. c #84CA89",
"5. c #61BB68",
"6. c #C3E5C6",
"7. c #9BD49F",
"8. c #AEDCB1",
"9. c #BCE2BF",
"0. c #60BB68",
"q. c #7EC884",
"w. c #7EC885",
"e. c #6ABF72",
"r. c #70C277",
"t. c #88CC8D",
"y. c #A8DAAC",
"u. c #68BE70",
"i. c #C0E4C3",
"p. c #79C67F",
"a. c #75C47B",
"s. c #424E5E",
"d. c #3A4452",
"f. c #353E4B",
"g. c #2B333D",
"h. c #282F38",
/* pixels */
"                                                          . X o ",
"                                                      O + @ # o ",
"                                                      + $ # % o ",
"      & * = = = = = = = = = = = = = = = = = = = = = = - ; o o o ",
"      * : > > > > > > > > > > > > > > > > > > > > > > > , o o o ",
"      = < > > > > 1 2 3 > > > > > > > > > > > > > > > > 4 o o o ",
"      = < > > > 5 6 7 8 > > > > > > > > > > > > > > > > 4 o o o ",
"      = < > 9 0 6 6 5 > q w e e r t r t y u i y p a > > 4 o o o ",
"      = < > s d f 1 > > g h j j k l k l z x c v b n > > 4 o o o ",
"      = < > > m M > > > N B B V c C c C Z g A S Z D > > 4 o o o ",
"      = < > > > > > > > > > > > > > > > > > > > > > > > 4 o o o ",
"      = < > > > > > > > > > > > > > > > > > > > > > > > 4 o o o ",
"      = < > > > > > > > > > > > > > > > > > > > > > > > 4 o o o ",
"      = < > > > > > > > > > > > > > > > > > > > > > > > 4 o o o ",
"      = < > > > > > > > > > > > > > > > > > > > > > > > 4 o o o ",
"      = < > > > > > > > > > > > > > > > > > > > > > > > 4 o o o ",
"      = < > F z g > G c H J K > > L P z I 1 > > > > > > 4 o o o ",
"      = < > m U Y > T R E W Q ! > ~ 6 ^ / L > > > > > > 4 o o o ",
"      = < > > g Y > ( ) > ! _ ` > W 2 ' > > > > > > > > 4 o o o ",
"      = < > > g Y > > > > ] [ { } |  ...X.> > > > > > > 4 o o o ",
"      = < > > g Y > > > > o.O.> a +.G @.#.$.> > > > > > 4 o o o ",
"      = < > > g Y > > > %.&.a > > > > > *.F > > > > > > 4 o o o ",
"      = < > > g Y > > =.-.] > > 1 > > a ;.:.> >.,.<.<.> 4 o o o ",
"      = < > > g Y > p 1.2.3.4.5.6.7.u 8.9.G 0.F g q.w.e.4 o o o ",
"      = < > > r.t.> 2 z z z y.{ u.W i./ 0.> p.> r 9 a.,.4 o o o ",
"      = < > > > > > > > > > > > > > > > > > ! > > > > > 4 o o o ",
"      = < > > > > > > > > > > > > > > > > > > > > > > > 4 o o o ",
"  O + - s.d.d.d.d.d.d.d.d.d.d.d.d.d.d.d.d.d.d.d.d.d.d.f.g.o o o ",
"  + $ ; , 4 4 4 4 4 4 4 4 4 4 4 4 4 4 4 4 4 4 4 4 4 4 g.h.o o o ",
". @ # o o o o o o o o o o o o o o o o o o o o o o o o o o o o o ",
"X # % o o o o o o o o o o o o o o o o o o o o o o o o o o o o o ",
"o o o o o o o o o o o o o o o o o o o o o o o o o o o o o o o o "
};
