/* XPM */
static char *bb3234e6b70d4813a3577ccc075bc267KcyFXa4WZ0H4Vu7Z[] = {
/* columns rows colors chars-per-pixel */
"32 32 148 2 ",
"   c #6A7F97",
".  c #596A7F",
"X  c #37414E",
"o  c #262D36",
"O  c #667A91",
"+  c #5D7085",
"@  c #4C5B6D",
"#  c #333C48",
"$  c white",
"%  c #2A323C",
"&  c #FDFDFD",
"*  c #EEEEEE",
"=  c #E1E1E1",
"-  c #DDDDDD",
";  c gray93",
":  c gray97",
">  c #B7B7B7",
",  c #606060",
"<  c gray28",
"1  c #4E4E4E",
"2  c gray32",
"3  c gray30",
"4  c #464646",
"5  c #646464",
"6  c #B1B1B1",
"7  c #F9F9F9",
"8  c gray74",
"9  c #494949",
"0  c gray43",
"q  c #CBCBCB",
"w  c #F6F6F6",
"e  c #F8F8F8",
"r  c gray78",
"t  c #747474",
"y  c #4C4C4C",
"u  c #B4B4B4",
"i  c #FEFEFE",
"p  c gray58",
"a  c gray29",
"s  c #CACACA",
"d  c #C3C3C3",
"f  c gray62",
"g  c gray60",
"h  c #5F5F5F",
"j  c #ECECEC",
"k  c gray95",
"l  c #585858",
"z  c #8E8E8E",
"x  c gray79",
"c  c #EAEAEA",
"v  c #E9E8E8",
"b  c #E9E9E9",
"n  c gray89",
"m  c #4B4B4B",
"M  c LightGray",
"N  c gray99",
"B  c #515151",
"V  c #BCBCBC",
"C  c #8E8D8E",
"Z  c #C3C2C2",
"A  c gray51",
"S  c #C6C6C6",
"D  c gray81",
"F  c #5A5A5A",
"G  c #C9C8C8",
"H  c #ADACAC",
"J  c #9E9E9D",
"K  c #6C6C6C",
"L  c #A8A8A7",
"P  c #CAC9C9",
"I  c gray33",
"U  c #C5C5C5",
"Y  c #808080",
"T  c gray69",
"R  c #7B7A7B",
"E  c gray21",
"W  c #7E7D7D",
"Q  c gray63",
"!  c #FBFBFB",
"~  c #7E7D7E",
"^  c gray85",
"/  c gray94",
"(  c #484848",
")  c gray96",
"_  c #A9A9A9",
"`  c gray44",
"'  c #504F4F",
"]  c gray23",
"[  c #3F3F3F",
"{  c #3C3C3C",
"}  c #3A3A3A",
"|  c gray42",
" . c gray68",
".. c gray98",
"X. c #7B7A7A",
"o. c #787777",
"O. c #777677",
"+. c #A2A1A1",
"@. c #8B8B8B",
"#. c #919090",
"$. c #797878",
"%. c #565656",
"&. c #414141",
"*. c #444444",
"=. c #F4F4F4",
"-. c #868585",
";. c #3F3E3E",
":. c #717070",
">. c gray90",
",. c #D0D0D0",
"<. c gray48",
"1. c #A0A0A0",
"2. c gray39",
"3. c #5B5B5B",
"4. c gray64",
"5. c gray54",
"6. c gray49",
"7. c #939393",
"8. c #7E7E7E",
"9. c #9B9B9B",
"0. c #686868",
"q. c #9D9D9D",
"w. c gray53",
"e. c gray91",
"r. c #C1C1C1",
"t. c gray87",
"y. c gray66",
"u. c gray70",
"i. c gray84",
"p. c #D2D2D2",
"a. c #505050",
"s. c #E7E7E7",
"d. c gray92",
"f. c #7B7B7B",
"g. c #676767",
"h. c #9F9F9F",
"j. c #D7D7D7",
"k. c #797979",
"l. c gray37",
"z. c gray34",
"x. c #777777",
"c. c gray71",
"v. c #445160",
"b. c #343E4B",
"n. c #2F3843",
"m. c #2D353F",
"M. c #2B333D",
"N. c #282F38",
/* pixels */
"                                                          . X o ",
"                                                      O + @ # o ",
"      $ $ $ $ $ $ $ $ $ $ $ $ $ $ $ $ $ $ $ $ $ $ $ $ $ $ # % o ",
"      $ $ $ $ $ $ $ $ $ $ $ $ $ $ $ $ $ $ $ $ $ $ $ $ $ $ o o o ",
"      $ $ $ $ $ $ $ $ $ $ & * = - = ; & $ $ $ $ $ $ $ $ $ o o o ",
"      $ $ $ $ $ $ $ $ : > , < 1 2 3 4 5 6 7 $ $ $ $ $ $ $ o o o ",
"      $ $ $ $ $ $ & 8 9 0 q w $ $ $ e r t y u i $ $ $ $ $ o o o ",
"      $ $ $ $ $ $ p a s & $ $ $ $ $ $ $ & d 1 f & $ $ $ $ o o o ",
"      $ $ $ $ & g h j $ $ $ $ $ $ $ $ $ $ $ k l z $ $ $ $ o o o ",
"      $ $ $ $ x < c $ $ $ & c v v v b $ $ $ $ n m M $ $ $ o o o ",
"      $ $ $ N B V $ $ $ $ * C Z Z Z A $ $ $ $ $ S l : $ $ o o o ",
"      $ $ $ D F 7 $ G H H J t V V V K L H H P $ & I U $ $ o o o ",
"      $ $ $ Y T $ $ R E E E E E E E E E E E W $ $ Q t $ $ o o o ",
"      $ $ ! I - $ $ R E E E E E E E E E E E ~ $ $ ^ B $ $ o o o ",
"      $ $ / ( ) $ $ _ ` ' ] E [ < { E } y |  .$ $ b 4 $ $ o o o ",
"      $ $ * 4 ..$ $ X.[ B o.O.+.@.#.t $.%.&.~ $ $ j *.$ $ o o o ",
"      $ $ =.y ; $ $ X.E E E E -.;.:.E E E E W $ $ >.9 $ $ o o o ",
"      $ $ i h ,.$ $ X.E E E E <.1.2.E E E E ~ $ $ x 3.$ $ o o o ",
"      $ $ $ 4.5.$ $ X.E E E E E E E E E E E ~ $ $ 6.7.$ $ o o o ",
"      $ $ $ >.9 * $ X.E E E E E E E E E E E ~ $ w < - $ $ o o o ",
"      $ $ $ $ 6.8.$ 9.0.0.0.0.0.0.0.0.0.0.0.q.& 5.w.i $ $ o o o ",
"      $ $ $ $ e.3 r.$ $ $ $ $ $ $ $ $ $ $ $ $ > ( / $ $ $ o o o ",
"      $ $ $ $ $ t.< y.& $ $ $ $ $ $ $ $ $ N u.9 i.$ $ $ $ o o o ",
"      $ $ $ $ $ $ p.a.A s.$ $ $ $ $ $ $ d.f.m ^ $ $ $ $ $ o o o ",
"      $ $ $ $ $ $ $ e p 9 g.h.s j.x 4.5 < 9.) $ $ $ $ $ $ o o o ",
"      $ $ $ $ $ $ $ $ $ * T k.l.z.h x.c.d.$ $ $ $ $ $ $ $ o o o ",
"      $ $ $ $ $ $ $ $ $ $ $ $ $ $ $ $ $ $ $ $ $ $ $ $ $ $ o o o ",
"  O + $ $ $ $ $ $ $ $ $ $ $ $ $ $ $ $ $ $ $ $ $ $ $ $ $ $ o o o ",
"  + v.b.n.m.m.m.m.m.m.m.m.m.m.m.m.m.m.m.m.m.m.m.m.m.m.M.N.o o o ",
". @ # o o o o o o o o o o o o o o o o o o o o o o o o o o o o o ",
"X # % o o o o o o o o o o o o o o o o o o o o o o o o o o o o o ",
"o o o o o o o o o o o o o o o o o o o o o o o o o o o o o o o o "
};
