/* XPM */
static char *_4ba1d1527074bd08559fad701748763xXnnbee3nlqcb6qa[] = {
/* columns rows colors chars-per-pixel */
"32 32 137 2 ",
"   c gray21",
".  c #3D3D3D",
"X  c #464646",
"o  c #4B4B4B",
"O  c #504F4F",
"+  c #535353",
"@  c gray36",
"#  c #646464",
"$  c #696969",
"%  c #747474",
"&  c #787777",
"*  c #7C7B7C",
"=  c #687584",
"-  c #6E7C8C",
";  c #758494",
":  c #798797",
">  c #798897",
",  c #7B899A",
"<  c #838383",
"1  c #8C8C8C",
"2  c #818F9D",
"3  c #83909E",
"4  c #939393",
"5  c #9C9C9C",
"6  c #808EA2",
"7  c #8492A2",
"8  c #8695AA",
"9  c #8D9DB1",
"0  c #909FB3",
"q  c #93A2B5",
"w  c #9BA9BA",
"e  c #A2A2A2",
"r  c #A8A8A7",
"t  c #ACABAB",
"y  c #B3B3B3",
"u  c #BCBCBC",
"i  c #96A7C0",
"p  c #97A8C0",
"a  c #9BABC3",
"s  c #9CB0C5",
"d  c #A0AFC6",
"f  c #A3B1C4",
"g  c #A9B5C4",
"h  c #AEB9C7",
"j  c #A4B3C8",
"k  c #A9B7CC",
"l  c #ABB9CD",
"z  c #B0BBC8",
"x  c #A7BCD5",
"c  c #A9BDD5",
"v  c #B0BDD0",
"b  c #B5C0CC",
"n  c #ADC0D7",
"m  c #AFC1D8",
"M  c #B0C0D1",
"N  c #B3C4DA",
"B  c #BACADD",
"V  c #B3C7E3",
"C  c #B2C9E1",
"Z  c #BBCFE4",
"A  c #BBD3EE",
"S  c #C4C4C4",
"D  c #CACACA",
"F  c #C4CCD7",
"G  c #C2CCDA",
"H  c #CAD2DF",
"J  c #D4D4D4",
"K  c #DCDCDC",
"L  c #C0CFE0",
"P  c #C6D3E3",
"I  c #CAD4E3",
"U  c #CDD9E7",
"Y  c #D0D7E2",
"T  c #D6DDE5",
"R  c #DADFE8",
"E  c #C2DCF6",
"W  c #C6DFFA",
"Q  c #DCE2EA",
"!  c #CBE2FB",
"~  c #CDE8FF",
"^  c #D3E6FB",
"/  c #D3EEFF",
"(  c #DBF1FF",
")  c gray90",
"_  c #E7E7E7",
"`  c #E2E2E2",
"'  c #E0E5EC",
"]  c #E1E6ED",
"[  c #E4E8EF",
"{  c #E5E9EF",
"}  c #E6EAEE",
"|  c #E7EBEF",
" . c gray91",
".. c #E9E8E8",
"X. c #E9E9E9",
"o. c #EAEAEA",
"O. c gray92",
"+. c #E9EAEC",
"@. c #E8EBEF",
"#. c #ECECEC",
"$. c gray93",
"%. c #EDEDEE",
"&. c #EEEEEE",
"*. c #EDEDED",
"=. c #E9ECF1",
"-. c #EAEDF1",
";. c #EBEEF1",
":. c #ECEFF2",
">. c #ECEFF3",
",. c #ECEFF4",
"<. c #E9ECF2",
"1. c #EFF3F7",
"2. c gray94",
"3. c gray95",
"4. c #F2F3F5",
"5. c #F0F3F7",
"6. c #F3F4F7",
"7. c #F4F4F4",
"8. c gray96",
"9. c #F4F5F7",
"0. c #F6F6F6",
"q. c gray97",
"w. c gray96",
"e. c #F5F7F8",
"r. c #F4F6F9",
"t. c #F8F8F8",
"y. c #F9F9F9",
"u. c #F9FAFB",
"i. c gray98",
"p. c gray99",
"a. c #FDFDFD",
"s. c #FDFDFE",
"d. c #FDFEFE",
"f. c #FEFEFE",
"g. c #FEFEFF",
"h. c white",
"j. c #FEFEFE",
/* pixels */
"/ / / / / / / / / / / / / / / / / / / / / / / / / / / / / A 8 = ",
"/ / / / / / / / / / / / / / / / / / / / / / / / / / / ~ E x , = ",
"/ / / / / / / / / ( / / / / / / / / / / / / / / / / / W N , ; = ",
"/ / / / ! W W W ^ ! W ! ! ^ ^ ^ ^ ^ ! ! W W W ! W ! ^ Z 8 = = = ",
"/ / / ~ V x x c x m P 1.h.h.2.` K ` %.5.U N n m B n n j , = = = ",
"/ / / W x i a a j R h.w.y # X o + o X # y w.G a a k j q ; = = = ",
"/ / / W x k a a Q h.u o $ D w.h.h.h.y.S % o y ] c a a q , = = = ",
"/ / / W x k a G h.4 o D h.h.h.h.h.h.h.h.h.S o 5 p.H a 0 3 = = = ",
"/ / / W c d v y.5 @ %.h.h.h.h.h.h.h.h.h.h.h.2.@ 1 h.Q q 3 = = = ",
"/ / / W x j ,.D X X.h.h.h.h.X.X.X.X.X.h.h.h.h.` o J h.z > = = = ",
"/ / / W x G p.+ u h.h.h.h.%.1 S S S < h.h.h.h.h.S @ w.T , = = = ",
"/ / / W x Q D @ y.h.D t t 5 % u u u $ r t t D h.h.+ S { 3 = = = ",
"/ / / W x { < t h.h.&                       * h.h.e % 1.3 = = = ",
"/ / / W c -.+ K h.h.*                       < h.h.J + w.3 = = = ",
"/ / / W N +.o w.h.h.r % O .   . X .     o $ t h.h.X.X t.3 = = = ",
"/ / / W G -.X y.h.h.* . O & & e 1 1 & & + X * h.h.%.X w.3 = = = ",
"/ / / W P w.o #.h.h.*         < . %         * h.h.) o @.2 = = = ",
"/ / / W I h.@ J h.h.&         * e #         < h.h.D @ =.2 = = = ",
"/ / / W B h.e 1 h.h.*                       * h.h.* 4 -., = = = ",
"/ / / W x h.) o %.h.*                       * h.w.X K -.> = = = ",
"/ / / W x T h.* * h.5 $ $ $ # $ $ $ # $ $ $ 5 h.1 < h.G ; = = = ",
"/ / / W x a -.X.o S h.h.h.h.h.h.h.h.h.h.h.h.h.y o 2.] 9 ; = = = ",
"/ / / ! x p j r.K X e h.h.h.h.h.h.h.h.h.h.p.y X J { a 9 : = = = ",
"/ / / ! x p p Y h.J + < ) h.h.h.h.h.h.h.X.* o K Q j w 9 : = = = ",
"/ / / ! x p p j Q h.w.4 o # 5 D K D e # X 5 w.Q a p p 9 , = = = ",
"/ / / ! x a p p d H y.h.%.y * @ + @ * y +.h.] a p p p 9 : = = = ",
"/ / / ~ x a j p a a l H -.h.h.h.h.h.h.h.h.H p p p p p 9 > = = = ",
"/ ~ A C p 9 0 0 9 q q 9 0 w h g w f z h 0 9 9 9 9 9 9 8 : = = = ",
"/ A a 8 , ; ; ; ; ; ; ; ; ; ; ; > : ; ; ; ; ; ; ; ; ; - - = = = ",
"A n , = = = = = = = = = = = = = = = = = = = = = = = = = = = = = ",
"9 , - = = = = = = = = = = = = = = = = = = = = = = = = = = = = = ",
"= - = = = = = = = = = = = = = = = = = = = = = = = = = = = = = = "
};
